<?xml version="1.0" encoding="UTF-8"?>
<!DOCTYPE svg PUBLIC "-//W3C//DTD SVG 1.1//EN" "http://www.w3.org/Graphics/SVG/1.1/DTD/svg11.dtd">
<!-- Creator: CorelDRAW X7 -->
<svg xmlns="http://www.w3.org/2000/svg" xml:space="preserve" width="2.95723in" height="3.04201in" version="1.1" style="shape-rendering:geometricPrecision; text-rendering:geometricPrecision; image-rendering:optimizeQuality; fill-rule:evenodd; clip-rule:evenodd"
viewBox="0 0 904 930"
 xmlns:xlink="http://www.w3.org/1999/xlink">
 <defs>
  <style type="text/css">
   <![CDATA[
    .fil0 {fill:#FF5A5F}
   ]]>
  </style>
 </defs>
 <g id="Layer_x0020_1">
  <metadata id="CorelCorpID_0Corel-Layer"/>
  <path class="fil0" d="M342 757c13,0 19,3 19,3l0 38c0,0 -35,-11 -57,14l0 114 -41 0 0 -164c0,0 32,0 35,0 3,0 6,3 6,6l0 7c8,-9 25,-18 38,-18zm368 -234c-4,34 -27,63 -59,76 -15,6 -32,8 -49,6 -16,-2 -32,-7 -49,-16 -23,-13 -47,-33 -74,-63 43,-53 69,-100 79,-143 4,-20 5,-38 3,-55 -3,-16 -9,-31 -18,-44 -20,-29 -53,-46 -91,-46 -37,0 -71,17 -91,46 -9,13 -15,28 -18,44 -2,17 -1,35 4,55 9,43 36,91 78,143 -27,30 -51,50 -74,63 -17,10 -33,15 -49,17 -17,2 -34,-1 -49,-6 -32,-13 -54,-43 -59,-76 -2,-16 -1,-32 6,-51 2,-6 5,-13 8,-20 5,-11 10,-22 15,-33l1 -1c44,-96 92,-195 142,-290l2 -4c5,-10 10,-20 16,-30 5,-10 11,-20 18,-28 13,-16 31,-24 51,-24 20,0 39,8 52,24 7,8 13,18 18,28 5,10 11,20 16,30l2 4c49,96 97,194 141,291l0 0c6,11 10,22 15,33 3,7 7,14 9,20 5,17 7,33 4,50l0 0zm-258 -30c-35,-44 -57,-86 -65,-120 -3,-15 -4,-28 -2,-40 1,-10 5,-19 10,-27 12,-18 33,-29 57,-29 24,0 45,11 57,29 5,8 9,17 10,27 2,12 2,25 -2,40 -7,34 -30,75 -65,120l0 0zm292 -34c-3,-8 -7,-16 -10,-23 -5,-12 -10,-23 -15,-33l0 -1c-45,-97 -93,-195 -143,-292l-2 -4c-5,-10 -11,-20 -16,-30 -6,-12 -13,-24 -23,-36 -21,-26 -51,-40 -82,-40 -33,0 -62,14 -83,39 -10,11 -17,24 -23,35 -5,11 -11,21 -16,31l-2 4c-50,97 -98,195 -143,292l0 1c-5,11 -10,22 -15,33 -3,7 -7,15 -10,24 -8,23 -11,46 -8,69 7,49 40,90 84,108 17,7 35,10 53,10 5,0 11,-1 17,-1 21,-3 43,-10 64,-22 27,-15 52,-36 80,-67 29,31 55,52 81,67 21,12 43,19 64,22 5,0 12,1 17,1 18,0 36,-3 53,-10 45,-18 76,-60 84,-108 5,-22 2,-45 -6,-69l0 0zm-289 431c-16,0 -28,-8 -35,-17l0 -59c7,-9 21,-18 35,-18 28,0 50,18 50,47 0,30 -22,47 -50,47zm7 -133c-28,0 -42,18 -42,18l0 -92 -42 0 0 243c0,0 32,0 36,0 3,0 6,-3 6,-6l0 -8c0,0 13,18 42,18 47,0 85,-36 85,-86 0,-50 -37,-87 -85,-87zm252 72l0 97 -42 0 0 -93c0,-27 -9,-38 -32,-38 -13,0 -26,7 -34,17l0 114 -42 0 0 -164 33 0c4,0 6,3 6,6l0 7c12,-13 29,-18 45,-18 18,0 33,6 46,16 14,12 20,28 20,56zm99 61c-16,0 -29,-8 -35,-17l0 -59c6,-9 20,-18 35,-18 28,0 49,18 49,47 0,30 -21,47 -49,47zm7 -133c-29,0 -42,18 -42,18l0 -92 -42 0 0 243c0,0 32,0 35,0 4,0 6,-3 6,-6l0 -8c0,0 14,18 43,18 47,0 84,-36 84,-86 0,-50 -37,-87 -84,-87zm-625 5l41 0 0 164 -41 0 0 -164zm-68 111c-7,10 -20,18 -35,18 -28,0 -50,-18 -50,-47 0,-30 22,-47 50,-47 15,0 29,8 35,18l0 58zm0 -105c0,3 0,7 0,7 0,0 -14,-18 -42,-18 -48,0 -85,37 -85,87 0,50 37,86 85,86 29,0 42,-18 42,-18l0 8c0,3 3,6 6,6l35 0 0 -164c0,0 -32,0 -35,0 -3,0 -6,3 -6,6zm117 -57c0,15 -13,28 -29,28 -15,0 -28,-13 -28,-28 0,-16 12,-29 28,-29 17,1 29,13 29,29z"/>
 </g>
</svg>
